<?xml version="1.0" encoding="UTF-8"?>
<svg id="Calque_1" xmlns="http://www.w3.org/2000/svg" version="1.1" viewBox="0 0 910.5 320.8">
  <!-- Generator: Adobe Illustrator 29.4.0, SVG Export Plug-In . SVG Version: 2.1.0 Build 152)  -->
  <path d="M256.5,250h-23.5c-9.3,0-18.7-1.2-28-3.5-9.3-2.3-17.9-6.2-25.8-11.5-7.8-5.3-13.6-13.3-17.2-24-11.3,10.7-23.4,18.7-36.2,24-12.8,5.3-26.2,9.2-40,11.5-13.8,2.3-27.9,3.5-42.2,3.5H0v-50c0-20.7,4.7-37.7,14-51,9.3-13.3,21.7-23.9,37-31.8,15.3-7.8,32.7-13.2,52-16.2,19.3-3,39-4.5,59-4.5s6.8-.3,11.5-1c4.7-.7,9.3-1.8,14-3.2,4.7-1.5,9.2-3.2,13.5-5.2,4.3-2,8-4.2,11-6.5v97.5c0,5.7,1,10,3,13s4.8,5.2,8.5,6.5c3.7,1.3,8.3,2.1,14,2.2,5.7.2,12.2.2,19.5.2h49l-20,50h-29.5ZM50.5,201c9,0,17.9-.8,26.8-2.5,8.8-1.7,17.8-4.5,26.8-8.5s18.2-9.5,27.8-16.5,19.6-15.8,30.2-26.5c-32-1.7-57.7,1.5-77,9.5-19.3,8-30.8,22.8-34.5,44.5Z"/>
  <path d="M286,250V113.5c0-6,1.9-11.3,5.8-16,3.8-4.7,8.4-8.5,13.8-11.5,5.3-3,10.8-5.2,16.5-6.8,5.7-1.5,10.3-2.2,14-2.2v16l204-.5c19,0,34.2,3,45.8,9s20.4,14,26.8,24c6.3,10,10.7,21.4,13,34.2,2.3,12.8,3.5,26.2,3.5,40.2h97.5l-19.5,50h-128.5v-40c0-13-1.2-24.5-3.5-34.5-2.3-10-6.3-18-12-24-5.7-6-14.2-9-25.5-9h-57v107.5c-3-3.7-7.2-6.5-12.8-8.5l-16.5-6c-5.5-2-10.3-4.5-14.5-7.5-4.2-3-6.2-7.3-6.2-13v-72.5l-94.5.5v107h-50Z"/>
  <path d="M886,312.5c-9.3,2.7-20.2,4.8-32.8,6.5-12.5,1.7-25.4,2.2-38.8,1.5-13.3-.7-26.6-3-39.8-7-13.2-4-24.9-10.2-35.2-18.8-10.3-8.5-18.7-19.8-25-33.8-6.3-14-9.5-31.3-9.5-52V36.5c0-6,1.9-11.3,5.8-16,3.8-4.7,8.3-8.5,13.5-11.5,5.2-3,10.6-5.2,16.2-6.8,5.7-1.5,10.5-2.2,14.5-2.2v43h79.5l-19.5,50h-60v97c0,24,4.2,41.8,12.8,53.5s19.8,19.4,34,23.2c14.2,3.8,30.7,4.8,49.5,3,18.8-1.8,38.6-4.2,59.2-7.2l-24.5,50Z"/>
  <path d="M4.5,284.4c0-.9.2-1.6.6-2.2.4-.6.8-1.2,1.4-1.7s1.2-.9,2-1.3c.7-.4,1.4-.7,2.2-1.1s1.4-.7,2-1.1c.6-.4,1.1-.7,1.5-1.2.6.7,1.4,1.2,2.4,1.7,1.1.5,2.1,1,3.2,1.6,1.1.6,2,1.3,2.7,2.1.8.8,1.2,1.8,1.2,3.1v17.2h9l-1.7,4.3h-11.6v-9.2h-10.5v9.2h-4.3v-21.4ZM8.8,292.4h10.5v-6.7c0-.7-.2-1.3-.5-1.7-.3-.4-.7-.7-1.3-1.1-.5-.3-1.1-.6-1.7-.9s-1.2-.7-1.8-1.1c-.5.5-1.1.8-1.8,1.1-.6.3-1.2.6-1.7.9-.5.3-1,.7-1.3,1.1s-.5,1-.5,1.7c0,0,0,6.7,0,6.7Z"/>
  <path d="M43.4,296.1c.2.2.5.5,1,1,.5.5,1,1,1.6,1.5s1.2,1.1,1.9,1.6c.6.6,1.2,1,1.7,1.4l-2.1,4.2h-16.6l1.7-4.3c0-.2,0-.5-.1-.9,0-.4,0-.8.1-1.2.3.3.5.6.9.8.3.3.7.5,1.1.7.4.2.9.3,1.4.4.5.1,1.2.2,1.9.2h5c-1.1-.9-1.9-1.7-2.6-2.3s-1.1-1.2-1.4-1.8c-.3-.5-.4-1.1-.4-1.6,0-.5.2-1.1.6-1.8.4-.9,1.1-1.5,1.9-1.9.8-.4,1.8-.7,2.8-.8s2.1-.2,3.1-.2c1.1,0,2,0,2.9,0h1.4c-.1.5-.3,1-.5,1.5-.2.5-.5,1-.7,1.3-.3.4-.6.7-.9.9-.3.2-.6.4-1,.4-1.1,0-2,0-2.8,0-.8,0-1.4.2-1.8.5h0ZM34.8,309.5l2.6-2.6,2.5,2.5-2.6,2.6s-2.5-2.5-2.5-2.5ZM40.9,309.5l2.6-2.6,2.5,2.5-2.6,2.6s-2.5-2.5-2.5-2.5Z"/>
  <path d="M62.4,296.1c.2.2.5.5,1,1s1,1,1.6,1.5c.6.5,1.2,1.1,1.9,1.6.6.6,1.2,1,1.7,1.4l-2.1,4.2h-16.6l1.7-4.3c0-.2,0-.5-.1-.9s0-.8.1-1.2c.3.3.5.6.9.8.3.3.7.5,1.1.7.4.2.9.3,1.4.4.5.1,1.2.2,1.9.2h5c-1.1-.9-1.9-1.7-2.6-2.3s-1.1-1.2-1.4-1.8c-.3-.5-.4-1.1-.4-1.6,0-.5.2-1.1.6-1.8.4-.9,1.1-1.5,1.9-1.9.8-.4,1.8-.7,2.8-.8s2.1-.2,3.1-.2c1.1,0,2,0,2.9,0h1.4c-.1.5-.3,1-.5,1.5s-.5,1-.7,1.3c-.3.4-.6.7-.9.9-.3.2-.6.4-1,.4-1.1,0-2,0-2.8,0s-1.4.2-1.8.5h0ZM53.7,309.5l2.6-2.6,2.5,2.5-2.6,2.6s-2.5-2.5-2.5-2.5ZM59.8,309.5l2.6-2.6,2.5,2.5-2.6,2.6s-2.5-2.5-2.5-2.5Z"/>
  <path d="M70.7,305.9v-4.3c0-.8.1-1.7.4-2.7s.7-2,1.3-3,1.5-1.9,2.6-2.8c1.1-.9,2.4-1.5,4.1-2,1.4.5,2.5,1.2,3.5,2.1,1,.9,1.8,1.9,2.4,2.9s1,2,1.3,3c.3,1,.4,1.8.4,2.5h7.5l-1.7,4.3h-21.8,0ZM78.9,295.7c-.5.2-1,.6-1.5,1.1s-.9,1.1-1.2,1.6-.6,1.2-.8,1.7c-.2.6-.2,1-.2,1.4h6.8c.1-.7,0-1.4-.2-2-.2-.6-.5-1.2-.8-1.7-.3-.5-.7-1-1.1-1.3s-.7-.6-1-.8Z"/>
  <path d="M112.8,305.9h-20.6l2.7-6.9c.2-.5.4-1.1.8-1.9.4-.8.9-1.5,1.5-2.2s1.4-1.3,2.4-1.8c.9-.5,2.1-.8,3.4-.7.9,0,1.8,0,2.6,0,.8,0,1.4,0,2,0h1.4c0,.4-.2.8-.3,1.3-.1.5-.3.9-.6,1.4-.2.4-.5.8-.9,1.1-.4.3-.8.4-1.3.4s-.8,0-1.3,0c-.5,0-1.1,0-1.8,0s-1.2.2-1.7.7c-.5.5-.9,1-1.2,1.6-.3.6-.6,1.2-.7,1.7-.2.5-.3.9-.3,1h15.9l-1.7,4.3h0Z"/>
  <path d="M112.4,287.1l2.6-2.6,2.5,2.5-2.6,2.6-2.5-2.5ZM112.8,305.9v-10.3c0-.5.2-1,.5-1.4s.7-.7,1.1-1,.9-.4,1.4-.6c.5-.1.9-.2,1.3-.2v9.2h8.3l-1.7,4.3h-11Z"/>
  <path d="M145.7,305.9h-2c-.8,0-1.6,0-2.4-.3-.8-.2-1.5-.5-2.2-1-.7-.5-1.2-1.1-1.5-2.1-1,.9-2,1.6-3.1,2.1s-2.2.8-3.4,1c-1.2.2-2.4.3-3.6.3h-3.7v-4.3c0-1.8.4-3.2,1.2-4.4.8-1.1,1.9-2.1,3.2-2.7s2.8-1.1,4.4-1.4c1.7-.3,3.3-.4,5-.4s.6,0,1,0c.4,0,.8-.2,1.2-.3.4-.1.8-.3,1.2-.4s.7-.4.9-.6v8.3c0,.5,0,.9.3,1.1s.4.4.7.6c.3.1.7.2,1.2.2.5,0,1,0,1.7,0h4.2l-1.7,4.3h-2.5,0ZM128.1,301.7c.8,0,1.5,0,2.3-.2s1.5-.4,2.3-.7c.8-.3,1.6-.8,2.4-1.4s1.7-1.4,2.6-2.3c-2.7-.1-4.9.1-6.6.8-1.7.7-2.6,2-3,3.8h0Z"/>
  <path d="M163.6,311.2c-.8.2-1.7.4-2.8.6s-2.2.2-3.3.1c-1.1,0-2.3-.3-3.4-.6-1.1-.3-2.1-.9-3-1.6s-1.6-1.7-2.1-2.9-.8-2.7-.8-4.4v-14.8c0-.5.2-1,.5-1.4.3-.4.7-.7,1.2-1,.4-.3.9-.4,1.4-.6.5-.1.9-.2,1.2-.2v3.7h6.8l-1.7,4.3h-5.1v8.3c0,2.1.4,3.6,1.1,4.6s1.7,1.7,2.9,2,2.6.4,4.2.3c1.6-.2,3.3-.4,5.1-.6l-2.1,4.3h0Z"/>
  <path d="M160.6,287.1l2.6-2.6,2.5,2.5-2.6,2.6-2.5-2.5ZM161,305.9v-10.3c0-.5.2-1,.5-1.4s.7-.7,1.1-1,.9-.4,1.4-.6c.5-.1.9-.2,1.3-.2v9.2h8.3l-1.7,4.3h-11Z"/>
  <path d="M171.9,305.9v-4.3c0-.8.1-1.7.4-2.7s.7-2,1.3-3,1.5-1.9,2.6-2.8c1.1-.9,2.4-1.5,4.1-2,1.4.5,2.5,1.2,3.5,2.1s1.8,1.9,2.4,2.9,1,2,1.3,3,.4,1.8.4,2.5h7.5l-1.7,4.3h-21.8,0ZM180.1,295.7c-.5.2-1,.6-1.5,1.1s-.9,1.1-1.2,1.6c-.3.6-.6,1.2-.8,1.7-.2.6-.2,1-.2,1.4h6.8c.1-.7,0-1.4-.2-2-.2-.6-.5-1.2-.8-1.7-.3-.5-.7-1-1.1-1.3s-.7-.6-1-.8Z"/>
  <path d="M198,291v1.4h5.1c1.6,0,2.9.2,3.9.7s1.7,1.2,2.3,2c.5.9.9,1.8,1.1,3,.2,1.1.3,2.3.3,3.5h8.3l-1.7,4.3h-11v-3.4c0-1.1,0-2.1-.3-3-.2-.9-.5-1.5-1-2.1-.5-.5-1.2-.8-2.2-.8h-4.9v9.2h-4.3v-11.7c0-.5.2-1,.5-1.4.3-.4.7-.7,1.2-1,.5-.3.9-.4,1.4-.6.5-.1.9-.2,1.2-.2h0Z"/>
  <path d="M228.6,305.9v-4.3c0-1.7.3-3,.8-4.1.5-1.1,1.2-2,2.1-2.6.9-.7,1.9-1.2,3.1-1.5,1.2-.3,2.3-.6,3.6-.7,1.2-.1,2.5-.2,3.7-.2h3.4v-13.1l-.5-.9c.2-.4.7-.8,1.3-1.3.6-.5,1.3-.9,1.9-1.2.3,1.1,1,1.9,2.1,2.5l-.5.9v22.3h8.1l-1.7,4.3h-27.4ZM245.2,301.6v-4.8c-1.5,0-3,0-4.4,0-1.5,0-2.8,0-4,.3-1.2.2-2.1.7-2.9,1.4s-1.1,1.7-1.1,3.2h12.4Z"/>
  <path d="M255.9,292.4h4.3c1,0,2.1.2,3.1.7,1.1.4,2,1.1,2.9,1.9s1.7,1.8,2.4,2.9,1.1,2.4,1.3,3.7h5.9l-1.7,4.3h-14v.6c0,.3.1.6.4.8s.7.3,1.1.4,1,.1,1.6.2c.6,0,1.2,0,1.8,0,.8,0,1.6,0,2.3,0s1.4-.2,1.9-.4c-.1.3-.3.7-.6,1.3-.2.5-.6,1-1,1.5s-.9.9-1.5,1.3c-.6.4-1.3.5-2.1.5s-1.7,0-2.6,0-1.8-.1-2.6-.4-1.5-.8-2.1-1.5c-.6-.7-.9-1.8-.9-3.3v-1.1s0-13.4,0-13.4h0ZM265.4,301.6c-.4-1.5-1.1-2.6-2-3.4-1-.8-2.1-1.3-3.2-1.5v4.9h5.3Z"/>
  <path d="M286.6,296.1c.2.2.5.5,1,1s1,1,1.6,1.5c.6.5,1.2,1.1,1.9,1.6.6.6,1.2,1,1.7,1.4l-2.1,4.2h-16.6l1.7-4.3c0-.2,0-.5-.1-.9,0-.4,0-.8.1-1.2.3.3.5.6.9.8.3.3.7.5,1.1.7.4.2.9.3,1.4.4.5.1,1.2.2,1.9.2h5c-1.1-.9-1.9-1.7-2.6-2.3-.6-.6-1.1-1.2-1.4-1.8-.3-.5-.4-1.1-.4-1.6s.2-1.1.6-1.8c.4-.9,1.1-1.5,1.9-1.9.8-.4,1.8-.7,2.8-.8,1-.1,2.1-.2,3.1-.2,1.1,0,2,0,2.9,0h1.4c-.1.5-.3,1-.5,1.5-.2.5-.5,1-.7,1.3-.3.4-.6.7-.9.9-.3.2-.6.4-1,.4-1.1,0-2,0-2.8,0-.8,0-1.4.2-1.8.5h0ZM278,309.5l2.6-2.6,2.5,2.5-2.6,2.6-2.5-2.5ZM284.1,309.5l2.6-2.6,2.5,2.5-2.6,2.6-2.5-2.5Z"/>
  <path d="M307.2,284.4c0-1.3.3-2.3.9-3.1.6-.8,1.3-1.5,2.1-2.1.8-.6,1.7-1.1,2.6-1.6.9-.5,1.6-1.1,2.1-1.7.3.4.8.7,1.3,1.1.5.3,1.1.7,1.7,1s1.2.6,1.9.9c.7.3,1.3.7,1.8,1.1.3-.4.7-.8,1.1-1.1.4-.3.8-.6,1.2-.9.4-.3.8-.6,1.2-1s.7-.7,1.1-1.1c.6.7,1.3,1.2,2.2,1.7.9.5,1.7,1,2.6,1.6s1.6,1.3,2.2,2.1.9,1.8.9,3.1v17.2h9l-1.7,4.3h-11.6v-20.2c0-.7,0-1.3-.3-1.8-.2-.5-.5-.9-.8-1.2s-.7-.6-1.2-.9c-.4-.3-.9-.5-1.3-.9-.4.3-.8.6-1.2.9-.4.3-.8.7-1.1,1-.3.3-.6.7-.8,1.1s-.3.7-.3,1.1v20.8h-4.3v-20.2c0-.7-.1-1.3-.3-1.8-.2-.5-.5-.9-.9-1.2-.3-.3-.7-.6-1.2-.9-.4-.3-.8-.5-1.2-.8-.4.3-.8.6-1.2.9s-.8.7-1.1,1c-.3.3-.6.7-.8,1.1s-.3.7-.3,1.1v20.8h-4.3v-21.4h0Z"/>
  <path d="M352.9,295.5c0-.5.2-1,.5-1.4.3-.4.7-.7,1.1-1s.9-.4,1.4-.6c.5-.1.9-.2,1.3-.2v9.2h8.3l-1.7,4.3h-22.4v-10.3c0-.5.2-1,.5-1.4s.7-.7,1.1-1,.9-.4,1.4-.6.9-.2,1.3-.2v7.2c0,.5,0,.9.2,1.2s.3.5.8.6,1.2.2,2.1.2c1,0,2.3,0,4.1,0v-6h0Z"/>
  <path d="M376.3,296.1c.2.2.5.5,1,1s1,1,1.6,1.5c.6.5,1.2,1.1,1.9,1.6.6.6,1.2,1,1.7,1.4l-2.1,4.2h-16.6l1.7-4.3c0-.2,0-.5-.1-.9,0-.4,0-.8.1-1.2.3.3.5.6.9.8.3.3.7.5,1.1.7.4.2.9.3,1.4.4.5.1,1.2.2,1.9.2h5c-1.1-.9-1.9-1.7-2.6-2.3-.6-.6-1.1-1.2-1.4-1.8-.3-.5-.4-1.1-.4-1.6s.2-1.1.6-1.8c.4-.9,1.1-1.5,1.9-1.9.8-.4,1.8-.7,2.8-.8,1-.1,2.1-.2,3.1-.2,1.1,0,2,0,2.9,0h1.4c-.1.5-.3,1-.5,1.5-.2.5-.5,1-.7,1.3-.3.4-.6.7-.9.9-.3.2-.6.4-1,.4-1.1,0-2,0-2.8,0-.8,0-1.4.2-1.8.5h0ZM367.7,309.5l2.6-2.6,2.5,2.5-2.6,2.6-2.5-2.5ZM373.8,309.5l2.6-2.6,2.5,2.5-2.6,2.6-2.5-2.5Z"/>
  <path d="M397.2,295.5c0-.5.2-1,.5-1.4.3-.4.7-.7,1.1-1s.9-.4,1.4-.6c.5-.1.9-.2,1.3-.2v9.2h8.3l-1.7,4.3h-22.4v-10.3c0-.5.2-1,.5-1.4s.7-.7,1.1-1,.9-.4,1.4-.6.9-.2,1.3-.2v7.2c0,.5,0,.9.2,1.2s.3.5.8.6,1.2.2,2.1.2c1,0,2.3,0,4.1,0v-6h0Z"/>
  <path d="M421.8,305.9h-13.6v-26.6l-.5-.9c.2-.4.7-.8,1.3-1.3.6-.5,1.3-.9,1.9-1.2.3,1.1,1,1.9,2.1,2.5l-.5.9v22.3h11l-1.7,4.2h0Z"/>
  <path d="M421.8,305.9v-11.7c0-.5.2-1,.5-1.4.3-.4.7-.7,1.2-1,.5-.3.9-.4,1.4-.6.5-.1.9-.2,1.2-.2v1.4h17.5c1.6,0,2.9.2,3.9.7,1,.5,1.7,1.2,2.3,2.1.5.9.9,1.8,1.1,2.9.2,1.1.3,2.2.3,3.4h8.3l-1.7,4.3h-11v-3.4c0-1.1,0-2.1-.3-3-.2-.9-.5-1.5-1-2.1s-1.2-.8-2.2-.8h-4.9v9.2c-.3-.3-.6-.6-1.1-.7-.5-.2-.9-.3-1.4-.5-.5-.2-.9-.4-1.2-.6-.4-.3-.5-.6-.5-1.1v-6.2h-8.1v9.2h-4.3,0Z"/>
  <path d="M479.8,305.9h-2c-.8,0-1.6,0-2.4-.3-.8-.2-1.5-.5-2.2-1-.7-.5-1.2-1.1-1.5-2.1-1,.9-2,1.6-3.1,2.1s-2.2.8-3.4,1c-1.2.2-2.4.3-3.6.3h-3.7v-4.3c0-1.8.4-3.2,1.2-4.4.8-1.1,1.9-2.1,3.2-2.7,1.3-.7,2.8-1.1,4.4-1.4,1.7-.3,3.3-.4,5-.4s.6,0,1,0c.4,0,.8-.2,1.2-.3.4-.1.8-.3,1.2-.4s.7-.4.9-.6v8.3c0,.5,0,.9.3,1.1s.4.4.7.6c.3.1.7.2,1.2.2.5,0,1,0,1.7,0h4.2l-1.7,4.3h-2.5,0ZM462.1,301.7c.8,0,1.5,0,2.3-.2.8-.1,1.5-.4,2.3-.7.8-.3,1.6-.8,2.4-1.4s1.7-1.4,2.6-2.3c-2.7-.1-4.9.1-6.6.8-1.7.7-2.6,2-3,3.8Z"/>
  <path d="M486.6,291v1.4h5.1c1.6,0,2.9.2,3.9.7,1,.5,1.7,1.2,2.3,2,.5.9.9,1.8,1.1,3s.3,2.3.3,3.5h8.3l-1.7,4.3h-11v-3.4c0-1.1,0-2.1-.3-3-.2-.9-.5-1.5-1-2.1s-1.2-.8-2.2-.8h-4.9v9.2h-4.3v-11.7c0-.5.2-1,.5-1.4.3-.4.7-.7,1.2-1,.5-.3.9-.4,1.4-.6.5-.1.9-.2,1.2-.2h0Z"/>
  <path d="M518.4,296.1c.2.2.5.5,1,1s1,1,1.6,1.5,1.2,1.1,1.9,1.6c.6.6,1.2,1,1.7,1.4l-2.1,4.2h-16.6l1.7-4.3c0-.2,0-.5-.1-.9s0-.8.1-1.2c.3.3.5.6.9.8.3.3.7.5,1.1.7.4.2.9.3,1.4.4.5.1,1.2.2,1.9.2h5c-1.1-.9-1.9-1.7-2.6-2.3s-1.1-1.2-1.4-1.8c-.3-.5-.4-1.1-.4-1.6,0-.5.2-1.1.6-1.8.4-.9,1.1-1.5,1.9-1.9.8-.4,1.8-.7,2.8-.8s2.1-.2,3.1-.2c1.1,0,2,0,2.9,0h1.4c-.1.5-.3,1-.5,1.5s-.5,1-.7,1.3c-.3.4-.6.7-.9.9-.3.2-.6.4-1,.4-1.1,0-2,0-2.8,0-.8,0-1.4.2-1.8.5h0ZM509.8,309.5l2.6-2.6,2.5,2.5-2.6,2.6-2.5-2.5ZM515.9,309.5l2.6-2.6,2.5,2.5-2.6,2.6-2.5-2.5Z"/>
  <path d="M539,305.9v-4.3c0-1.7.3-3,.8-4.1.5-1.1,1.2-2,2.1-2.6.9-.7,1.9-1.2,3.1-1.5,1.2-.3,2.3-.6,3.6-.7,1.2-.1,2.5-.2,3.7-.2h3.4v-13.1l-.5-.9c.2-.4.7-.8,1.3-1.3.6-.5,1.3-.9,1.9-1.2.3,1.1,1,1.9,2.1,2.5l-.5.9v22.3h8.1l-1.7,4.3h-27.4ZM555.6,301.6v-4.8c-1.5,0-3,0-4.4,0-1.5,0-2.8,0-4,.3-1.2.2-2.1.7-2.9,1.4-.7.7-1.1,1.7-1.1,3.2h12.4,0Z"/>
  <path d="M566.3,292.4h4.3c1,0,2.1.2,3.1.7,1.1.4,2,1.1,2.9,1.9.9.8,1.7,1.8,2.4,2.9s1.1,2.4,1.3,3.7h5.9l-1.7,4.3h-14v.6c0,.3.1.6.4.8s.7.3,1.1.4,1,.1,1.6.2c.6,0,1.2,0,1.8,0,.8,0,1.6,0,2.3,0s1.4-.2,1.9-.4c-.1.3-.3.7-.6,1.3-.2.5-.6,1-1,1.5-.4.5-.9.9-1.5,1.3-.6.4-1.3.5-2.1.5s-1.7,0-2.6,0-1.8-.1-2.6-.4c-.8-.3-1.5-.8-2.1-1.5-.6-.7-.9-1.8-.9-3.3v-1.1s0-13.4,0-13.4h0ZM575.9,301.6c-.4-1.5-1.1-2.6-2-3.4-1-.8-2.1-1.3-3.2-1.5v4.9h5.3Z"/>
  <path d="M616.7,280.2h-8.4v21.4h11.6l-1.7,4.3h-14.2v-25.7h-8.4l1.6-4.3h21.1l-1.7,4.3h0Z"/>
  <path d="M618.2,305.9v-26.5l-.5-.9c.2-.4.7-.8,1.3-1.3.6-.5,1.3-.9,1.9-1.2.3,1.1,1,1.9,2.1,2.5l-.5.9v13.1h5.1c1.6,0,2.9.2,3.9.7,1,.5,1.7,1.2,2.3,2,.5.9.9,1.8,1.1,3s.3,2.3.3,3.5h8.3l-1.7,4.3h-11v-3.4c0-1.1,0-2.1-.3-3-.2-.9-.5-1.5-1-2.1s-1.2-.8-2.2-.8h-4.9v9.2h-4.3,0Z"/>
  <path d="M641.8,305.9v-4.3c0-.8.1-1.7.4-2.7s.7-2,1.3-3c.6-1,1.5-1.9,2.6-2.8s2.4-1.5,4.1-2c1.4.5,2.5,1.2,3.5,2.1s1.8,1.9,2.4,2.9c.6,1,1,2,1.3,3,.3,1,.4,1.8.4,2.5h7.5l-1.7,4.3h-21.8,0ZM650,295.7c-.5.2-1,.6-1.5,1.1s-.9,1.1-1.2,1.6-.6,1.2-.8,1.7c-.2.6-.2,1-.2,1.4h6.8c.1-.7,0-1.4-.2-2-.2-.6-.5-1.2-.8-1.7-.3-.5-.7-1-1.1-1.3s-.7-.6-1-.8Z"/>
  <path d="M667.9,291v1.4h5.1c1.6,0,2.9.2,3.9.7,1,.5,1.7,1.2,2.3,2,.5.9.9,1.8,1.1,3s.3,2.3.3,3.5h8.3l-1.7,4.3h-11v-3.4c0-1.1,0-2.1-.3-3-.2-.9-.5-1.5-1-2.1s-1.2-.8-2.2-.8h-4.9v9.2h-4.3v-11.7c0-.5.2-1,.5-1.4.3-.4.7-.7,1.2-1,.5-.3.9-.4,1.4-.6.5-.1.9-.2,1.2-.2h0Z"/>
  <path d="M687.3,305.9v-4.3c0-.8.1-1.7.4-2.7s.7-2,1.3-3c.6-1,1.5-1.9,2.6-2.8s2.4-1.5,4.1-2c1.4.5,2.5,1.2,3.5,2.1s1.8,1.9,2.4,2.9c.6,1,1,2,1.3,3,.3,1,.4,1.8.4,2.5h7.5l-1.7,4.3h-21.8,0ZM695.5,295.7c-.5.2-1,.6-1.5,1.1s-.9,1.1-1.2,1.6-.6,1.2-.8,1.7c-.2.6-.2,1-.2,1.4h6.8c.1-.7,0-1.4-.2-2-.2-.6-.5-1.2-.8-1.7-.3-.5-.7-1-1.1-1.3s-.7-.6-1-.8Z"/>
  <path d="M713.4,291v1.4h5.1c1.6,0,2.9.2,3.9.7,1,.5,1.7,1.2,2.3,2,.5.9.9,1.8,1.1,3s.3,2.3.3,3.5h8.3l-1.7,4.3h-11v-3.4c0-1.1,0-2.1-.3-3-.2-.9-.5-1.5-1-2.1s-1.2-.8-2.2-.8h-4.9v9.2h-4.3v-11.7c0-.5.2-1,.5-1.4.3-.4.7-.7,1.2-1,.5-.3.9-.4,1.4-.6.5-.1.9-.2,1.2-.2h0Z"/>
</svg>