<?xml version="1.0" encoding="UTF-8"?>
<svg xmlns="http://www.w3.org/2000/svg" viewBox="0 0 578.38 723.99">
  <g id="Calque_9" data-name="Calque 9">
    <path fill="#E6C86E" d="M10.6,719.3v-115.16c0-2.59,2.1-4.7,4.7-4.7h39.51c3.52,0,5.79-3.74,4.17-6.86l-22.47-43.25c-1.62-3.13.64-6.86,4.17-6.86h25.6c3.6,0,5.87-3.88,4.09-7.01-20.77-36.59-105.96-205.29-18.95-367.6C105.81,66.41,197.66,23.08,232.16,9.05c1.68-.68,2.81-2.27,2.91-4.08h0c.19-3.21-2.84-5.65-5.94-4.8-25.29,6.95-62.79,20.73-101.23,49.11-14.51,10.71-55.08,42.64-86.57,98.86C3.84,215.06,1.18,277.21.19,308.96c-3.06,98.1,31.8,174.31,54.39,214.21,1.77,3.13-.49,7.01-4.09,7.01h-29.05c-3.6,0-5.86,3.88-4.09,7.01l26.16,46.31c1.77,3.13-.49,7.01-4.09,7.01H4.7c-2.59,0-4.7,2.1-4.7,4.7v124.1c0,2.59,2.1,4.7,4.7,4.7h1.21c2.59,0,4.7-2.1,4.7-4.7Z"/>
  </g>
</svg>